<svg xmlns="http://www.w3.org/2000/svg" data-name="Layer 1" viewBox="0 0 64 64"><circle cx="32" cy="32" r="27" fill="#27aae1"/><path fill="#f1f2f2" d="M45.78,38.49l-13,2.13a4.7,4.7,0,0,1-1.52,0l-13-2.13a4.7,4.7,0,0,1-3.94-4.64V20.75a4.7,4.7,0,0,1,4.4-4.69l13-.83a4.7,4.7,0,0,1,.6,0l13,.83a4.7,4.7,0,0,1,4.4,4.69V33.85A4.7,4.7,0,0,1,45.78,38.49Z"/><path fill="#7f3f98" d="M48.75,53.16a26.94,26.94,0,0,1-33.5,0L16,50.5A9.12,9.12,0,0,1,24.79,44H39.21A9.12,9.12,0,0,1,48,50.5Z"/><path fill="#ffd2b4" d="M36,39v5.76a2,2,0,0,1-1.11,1.8h0a6.46,6.46,0,0,1-5.78,0h0A2,2,0,0,1,28,44.76V39Z"/><path fill="#fff" d="M36,44v.76a2,2,0,0,1-1.11,1.8,6.48,6.48,0,0,1-5.78,0A2,2,0,0,1,28,44.76V44H26v.76a4,4,0,0,0,2.22,3.58,8.39,8.39,0,0,0,7.56,0A4,4,0,0,0,38,44.76V44Z" opacity=".2"/><path fill="#ffd2b4" d="M32,15.21C43.45,15.21,42.47,26,42.47,26c1.68-.17,3,.49,3,2.86s-1,2.86-2.35,3a.29.29,0,0,0-.27.27c-.39,3.69-3,6.39-5.58,8.2a9.16,9.16,0,0,1-10.56,0c-2.57-1.81-5.19-4.52-5.58-8.2a.29.29,0,0,0-.27-.27c-1.31-.13-2.35-.63-2.35-3s1.27-3,2.94-2.86C21.47,26,20.54,15.21,32,15.21Z"/><path fill="#262234" d="M36,41.08v1.5a9.16,9.16,0,0,1-8,0v-1.5a9.16,9.16,0,0,0,8,0Z" opacity=".1"/><path fill="#262234" d="M32,13.63c-8.83,0-11.31,6.71-11.31,12.72A9.56,9.56,0,0,0,21,28.47c.18.72,2.07.69,2.19,0a16.75,16.75,0,0,1,1.11-6.85,1.07,1.07,0,0,1,.06-.09,12.65,12.65,0,0,0,4.29,2.77.38.38,0,0,0,.51-.47,17.69,17.69,0,0,1-.49-1.75,12.45,12.45,0,0,0,4.55,2.67.38.38,0,0,0,.49-.5c-.15-.39-.34-.89-.5-1.44a11.91,11.91,0,0,0,5.27,2,.38.38,0,0,0,.39-.58,16.91,16.91,0,0,1-1-1.83,13.24,13.24,0,0,0,2.54.86,20.68,20.68,0,0,1,.51,5.18c.11.64,2,.67,2.19,0a9.56,9.56,0,0,0,.26-2.12C43.31,20.33,40.84,13.63,32,13.63Z"/><path fill="#262234" d="M32.13 16s-1.39-2.46-6.84-3a.38.38 0 0 0-.35.61c.2.27.43.6.66 1a15.57 15.57 0 0 0-2.85.3.38.38 0 0 0-.16.68c1.22.93 3.6 3 3.06 4.39zM35.67 29.86a2.47 2.47 0 0 1-2.4-2 .75.75 0 0 1 1.47-.3 1 1 0 0 0 1.87 0 .75.75 0 0 1 1.47.3A2.47 2.47 0 0 1 35.67 29.86zM28.33 29.86a2.47 2.47 0 0 1-2.4-2 .75.75 0 0 1 1.47-.3 1 1 0 0 0 1.87 0 .75.75 0 0 1 1.47.3A2.47 2.47 0 0 1 28.33 29.86z"/><ellipse cx="32" cy="34.77" fill="#611c24" rx="2.51" ry="3.08"/><path fill="#be1e2d" d="M34.14,36.39a2.29,2.29,0,0,1-4.27,0A3,3,0,0,1,32,35.75,3,3,0,0,1,34.14,36.39Z"/><path fill="#002d6e" d="M51.44,50.72A27,27,0,0,1,12.79,51l7.73-.88A12.32,12.32,0,0,1,22.24,50l14.8.56a12.16,12.16,0,0,0,1.91-.09l5-.66a11.37,11.37,0,0,1,3.77.14Z"/><path fill="#262234" d="M44 35.62h3.87a.29.29 0 0 1 .29.29v.56a.29.29 0 0 1-.07.19L45.79 39.3a.14.14 0 0 0 .11.23h2a.29.29 0 0 1 .29.29v.59a.29.29 0 0 1-.29.29h-4a.29.29 0 0 1-.29-.29v-.55a.29.29 0 0 1 .07-.19L45.91 37a.14.14 0 0 0-.11-.23H44a.29.29 0 0 1-.29-.29v-.59A.29.29 0 0 1 44 35.62zM49.72 38h3.47a.26.26 0 0 1 .26.26v.5a.26.26 0 0 1-.06.17l-2 2.37a.13.13 0 0 0 .1.21h1.78a.26.26 0 0 1 .26.26v.53a.26.26 0 0 1-.26.26H49.64a.26.26 0 0 1-.26-.26v-.49a.26.26 0 0 1 .06-.17l2-2.38a.13.13 0 0 0-.1-.21H49.72a.26.26 0 0 1-.26-.26v-.53A.26.26 0 0 1 49.72 38z"/></svg>